# Blender v2.78 (sub 0) OBJ File: 'planet.blend'
# www.blender.org
mtllib planet.mtl
o Icosphere_Icosphere.002
v 0.004178 1.061016 -0.000109
v 0.727785 -0.443813 0.525617
v -0.272210 -0.443813 0.850541
v -0.890248 -0.443809 -0.000109
v -0.272210 -0.443813 -0.850758
v 0.273428 -0.546613 0.836927
v 0.280566 0.450627 0.850541
v -0.719429 0.450627 0.525617
v -0.719429 0.450627 -0.525834
v 0.280566 0.450627 -0.850758
v 0.898604 0.450623 -0.000109
v 0.529908 0.911668 -0.000109
v -0.158277 -0.847247 0.499887
v 0.429501 -0.847247 0.308903
v 0.267047 -0.522331 0.808903
v 0.854826 -0.522329 -0.000109
v 0.429501 -0.847247 -0.309120
v -0.521552 -0.847245 -0.000109
v -0.684011 -0.522329 0.499888
v -0.158277 -0.847247 -0.500104
v -0.684011 -0.522329 -0.500106
v 0.267047 -0.522331 -0.809120
v 0.955236 0.003407 0.308904
v 0.955236 0.003407 -0.309121
v 0.004178 0.003407 0.999891
v 0.591964 0.003407 0.808908
v -0.946880 0.003407 0.308904
v -0.583607 0.003407 0.808908
v -0.583607 0.003407 -0.809125
v -0.946880 0.003407 -0.309121
v 0.591964 0.003407 -0.809125
v 0.004178 0.003407 -1.000109
v 0.750255 -0.469195 0.541942
v -0.258691 0.529145 0.808903
v -0.846470 0.529143 -0.000109
v 0.448877 -0.876265 0.322980
v 0.692367 0.529143 -0.500106
v 0.166634 0.854061 0.499887
v 0.529908 0.854059 -0.000109
v -0.421145 0.854061 0.308903
v -0.421145 0.854061 -0.309120
v 0.166634 0.854061 -0.500104
v -0.158277 -0.847247 0.499887
v -0.162155 -0.891422 0.511821
v -0.521552 -0.847245 -0.000109
v -0.158277 -0.847247 -0.500104
v 0.529908 0.854059 -0.000109
v 0.429501 -0.847247 0.308903
v 0.429501 -0.847247 0.308903
v 0.429501 -0.847247 -0.309120
v 0.166634 0.854061 0.499887
v -0.421145 0.854061 0.308903
v -0.421145 0.854061 -0.309120
v 0.166634 0.854061 -0.500104
v 0.166634 0.911670 0.499887
v -0.421145 0.911670 0.308903
v -0.421145 0.911670 -0.309120
v 0.166634 0.911670 -0.500104
v 0.727785 -0.443813 0.525617
v 0.267047 -0.522331 0.808903
v -0.272210 -0.443813 0.850541
v 0.854826 -0.522329 -0.000109
v 0.429501 -0.847247 -0.309120
v -0.521552 -0.847245 -0.000109
v -0.684011 -0.522329 0.499888
v -0.890248 -0.443809 -0.000109
v -0.684011 -0.522329 -0.500106
v -0.272210 -0.443813 -0.850758
v 0.267047 -0.522331 -0.809120
v 0.004178 0.003407 0.999891
v 0.591964 0.003407 0.808908
v 0.280566 0.450627 0.850541
v -0.583607 0.003407 0.808908
v -0.719429 0.450627 0.525617
v 0.591964 0.003407 -0.809125
v 0.004178 0.003407 -1.000109
v 0.280566 0.450627 -0.850758
v -0.846470 0.529143 -0.000109
v -0.719429 0.450627 -0.525834
v -0.158277 -0.847247 0.499887
v 0.692367 0.529143 -0.500106
v 0.898604 0.450623 -0.000109
v 0.166634 0.854061 0.499887
v -0.421145 0.854061 0.308903
v -0.421145 0.854061 -0.309120
v 0.166634 0.854061 -0.500104
v -0.158277 -0.847247 0.499887
v -0.521552 -0.847245 -0.000109
v -0.158277 -0.847247 -0.500104
v 0.955236 0.003407 0.308904
v 0.955236 0.003407 -0.309121
v -0.946880 0.003407 0.308904
v -0.583607 0.003407 -0.809125
v -0.946880 0.003407 -0.309121
v 0.529908 0.854059 -0.000109
v -0.272474 -0.462841 0.882999
v 0.883450 -0.546611 -0.002700
v 0.448877 -0.876265 -0.323198
v 0.755012 -0.460639 -0.545615
v -0.711254 -0.547226 0.507215
v -0.920781 -0.465408 -0.004224
v -0.708692 -0.546612 -0.514834
v -0.280793 -0.469196 -0.877173
v 0.278357 -0.546613 -0.835543
v 0.005109 -0.009024 1.035392
v 0.618206 0.013169 0.834043
v 0.299431 0.469655 0.876955
v -0.613806 0.008134 0.830849
v -0.750877 0.465224 0.540234
v 0.617611 -0.005339 -0.835229
v -0.002278 0.013169 -1.035868
v 0.280831 0.469655 -0.883216
v 0.718261 0.548924 0.518701
v -0.875094 0.553425 0.002482
v -0.741712 0.472226 -0.547110
v -0.268581 0.548926 -0.839560
v 0.719610 0.554040 -0.507433
v 0.929137 0.472222 0.004007
v 0.183838 0.881899 0.518455
v -0.445977 0.881899 0.313812
v -0.440521 0.883079 -0.323198
v 0.163629 0.881899 -0.525239
v -0.155273 -0.875085 0.525021
v -0.546615 -0.874880 -0.004990
v -0.165679 -0.876266 -0.522882
v 0.987250 0.013169 0.326094
v 0.987988 -0.005339 -0.325447
v -0.979632 0.012153 0.325229
v -0.599403 0.013169 -0.841850
v -0.980355 -0.009024 -0.320977
v 0.554971 0.881694 0.004772
v -0.158277 -0.847247 -0.500104
v 0.429501 -0.847247 0.308903
v 0.429501 -0.847247 -0.309120
v 0.004178 -1.042515 -0.000109
v -0.534101 -0.891419 -0.000109
v -0.162155 -0.891422 -0.512039
v 0.439653 -0.891422 0.316279
v 0.439653 -0.891422 -0.316496
vn 0.0000 0.0000 1.0000
vn 0.5716 -0.7408 -0.3527
vn 0.1659 0.4089 -0.8973
vn -0.8316 -0.5553 0.0000
vn -0.6451 0.4047 -0.6481
vn 0.5253 -0.4377 -0.7297
vn 0.7462 0.6657 0.0000
vn -0.6695 -0.7410 -0.0511
vn 0.1548 0.6867 -0.7102
vn 0.2117 -0.9652 0.1538
vn 0.5578 -0.6061 0.5670
vn 0.8576 -0.4467 -0.2549
vn 0.2642 0.5580 0.7867
vn -0.4170 -0.4047 -0.8138
vn 0.6681 -0.5573 0.4929
vn -0.6377 0.5346 -0.5546
vn 0.5423 0.5609 0.6255
vn -0.5440 -0.4467 0.7103
vn -0.0809 -0.9652 -0.2489
vn 0.2922 0.6867 0.6656
vn -0.8623 0.4704 0.1873
vn -0.9772 -0.1795 -0.1132
vn -0.2570 -0.5553 0.7909
vn 0.1905 0.9719 -0.1384
vn 0.9766 0.1922 0.0962
vn -0.4950 0.7593 -0.4224
vn 0.4917 0.3695 0.7885
vn -0.4379 0.4733 0.7643
vn -0.5774 0.7359 0.3537
vn 0.4677 0.1326 0.8739
vn 0.9056 0.4001 0.1405
vn -0.8539 -0.4377 0.2816
vn -0.2306 -0.6657 -0.7097
vn -0.6210 0.6425 -0.4489
vn -0.8466 0.1922 0.4962
vn -0.1936 -0.9721 0.1324
vn 0.6487 0.7593 0.0507
vn 0.7010 -0.6618 0.2655
vn 0.0283 -0.3337 0.9422
vn 0.5331 -0.3337 -0.7775
vn 0.8023 -0.1287 -0.5829
vn 0.4116 0.6610 0.6274
vn -0.7016 0.6603 -0.2678
vn 0.0358 0.6610 -0.7495
vn 0.7245 0.6624 -0.1908
vn -0.1915 0.7937 -0.5774
vn -0.4687 0.6622 -0.5846
vn -0.6061 0.7954 -0.0037
vn -0.7011 0.6599 0.2702
vn 0.4939 0.7930 0.3566
vn 0.7238 0.6610 0.1980
vn -0.0270 0.3321 -0.9429
vn -0.3033 0.1913 -0.9335
vn -0.5342 0.3332 -0.7769
vn -0.9056 0.3321 0.2637
vn 0.5761 0.3321 0.7469
vn 0.7941 0.1913 0.5769
vn 0.8889 0.3332 0.3145
vn -0.8879 -0.3349 -0.3155
vn -0.8029 0.1292 0.5819
vn 0.9042 -0.3337 -0.2667
vn 0.4735 -0.6606 -0.5826
vn 0.1868 -0.7967 -0.5748
vn -0.0359 -0.6618 -0.7488
vn -0.4111 -0.6618 -0.6269
vn -0.4886 -0.7960 -0.3572
vn -0.7241 -0.6613 -0.1956
vn -0.7245 -0.6624 0.1908
vn 0.7004 -0.6606 -0.2703
vn 0.6044 -0.7967 0.0000
vn -0.0383 -0.6614 0.7491
vn 0.1908 -0.7954 0.5753
vn 0.4692 -0.6618 0.5847
vn 0.5774 -0.7359 -0.3537
vn 0.1462 0.4001 -0.9047
vn -0.5979 0.3695 -0.7113
vn 0.4404 -0.4777 -0.7602
vn 0.8298 0.5580 0.0081
vn -0.6486 -0.7598 -0.0452
vn 0.1522 0.7593 -0.6327
vn 0.6377 -0.5346 0.5546
vn 0.8563 -0.4377 -0.2741
vn 0.2306 0.6657 0.7097
vn -0.4917 -0.3695 -0.7885
vn 0.6202 -0.6421 0.4506
vn -0.5578 0.6061 -0.5670
vn 0.5485 0.5595 0.6213
vn -0.5317 -0.4377 0.7251
vn 0.2487 0.7593 0.6013
vn -0.8609 0.4419 0.2521
vn -0.9766 -0.1922 -0.0962
vn 0.9772 0.1795 0.1132
vn -0.5427 0.6867 -0.4836
vn 0.4170 0.4047 0.8138
vn -0.4446 0.4704 0.7623
vn -0.5716 0.7408 0.3527
vn 0.3932 0.1922 0.8991
vn 0.9047 0.4090 0.1195
vn -0.8031 -0.4777 0.3562
vn -0.2642 -0.5580 -0.7867
vn -0.6037 0.6657 -0.4386
vn -0.8571 0.1795 0.4828
vn -0.1016 -0.9921 0.0738
vn 0.7233 0.6867 0.0722
vn -0.3090 0.0000 -0.9511
vn -0.3090 0.0000 0.9511
vn 0.8090 -0.0000 -0.5878
vn -1.0000 0.0000 0.0000
vn 0.8090 0.0000 0.5878
vn 0.2680 0.9435 -0.1947
vn -0.1024 0.9435 -0.3151
vn -0.3313 0.9435 0.0000
vn -0.1024 0.9435 0.3151
vn 0.2680 0.9435 0.1947
vn -0.7885 0.2240 -0.5729
vn 0.9746 0.2240 0.0000
vn 0.3012 0.2240 -0.9269
vn -0.7885 0.2240 0.5729
vn 0.3012 0.2240 0.9269
vn 0.1013 -0.9447 0.3117
vn -0.2652 -0.9447 0.1927
vn -0.2652 -0.9447 -0.1927
vn 0.1013 -0.9447 -0.3117
vn 0.3278 -0.9447 0.0000
vn 0.9050 -0.3304 0.2680
vn -0.8897 -0.3304 0.3151
vn -0.5746 -0.3304 -0.7488
vn 0.8026 -0.1256 0.5831
vn -0.3066 -0.1256 0.9435
vn -0.9921 -0.1256 0.0000
vn -0.3066 -0.1256 -0.9435
vn -0.4713 0.6617 0.5831
vn 0.4911 0.7947 -0.3568
vn 0.4089 0.6617 -0.6284
vn -0.1876 0.7947 0.5773
vn 0.0385 0.6617 0.7488
vn 0.8897 0.3304 -0.3151
vn 0.7947 0.1876 -0.5773
vn 0.5746 0.3304 -0.7488
vn -0.9050 0.3304 -0.2680
vn -0.9822 0.1876 0.0000
vn -0.5346 0.3304 0.7779
vn -0.3035 0.1876 0.9342
vn -0.0247 0.3304 0.9435
vn 0.3066 0.1256 -0.9435
vn 0.3035 -0.1876 -0.9342
vn 0.0247 -0.3304 -0.9435
vn -0.8026 0.1256 -0.5831
vn -0.7947 -0.1876 -0.5773
vn -0.7947 -0.1876 0.5773
vn -0.5746 -0.3304 0.7488
vn 0.3066 0.1256 0.9435
vn 0.3035 -0.1876 0.9342
vn 0.5346 -0.3304 0.7779
vn 0.9921 0.1256 0.0000
vn 0.9822 -0.1876 0.0000
vn -0.4911 -0.7947 0.3568
vn -0.4089 -0.6617 0.6284
usemtl Earth
s off
f 39//1 54//1 47//1
f 18//1 65//1 88//1
f 42//1 53//1 54//1
f 41//1 52//1 53//1
f 40//1 51//1 52//1
f 3//1 87//1 61//1
f 16//1 59//1 62//1
f 35//1 92//1 78//1
f 42//1 77//1 86//1
f 27//1 73//1 92//1
f 20//1 88//1 89//1
f 28//1 74//1 73//1
f 38//1 47//1 51//1
f 20//1 50//1 46//1
f 30//1 67//1 94//1
f 8//1 84//1 74//1
f 17//1 49//1 50//1
f 23//1 82//1 90//1
f 7//1 71//1 72//1
f 18//1 46//1 45//1
f 13//1 45//1 43//1
f 40//1 85//1 84//1
f 5//1 69//1 68//1
f 17//1 89//1 63//1
f 25//1 61//1 70//1
f 32//1 93//1 76//1
f 38//1 72//1 83//1
f 13//1 48//1 87//1
f 11//1 81//1 82//1
f 22//1 75//1 69//1
f 24//1 62//1 91//1
f 41//1 86//1 85//1
f 31//1 91//1 75//1
f 14//1 63//1 48//1
f 9//1 78//1 79//1
f 21//1 68//1 67//1
f 26//1 90//1 71//1
f 37//1 95//1 81//1
f 4//1 94//1 66//1
f 15//1 70//1 60//1
f 19//1 66//1 65//1
f 29//1 79//1 93//1
f 14//1 43//1 49//1
f 10//1 76//1 77//1
f 2//1 60//1 59//1
f 39//1 83//1 95//1
f 46//1 134//1 132//1
f 43//1 64//1 80//1
f 49//1 80//1 133//1
f 45//1 132//1 64//1
f 50//1 133//1 134//1
f 82//2 117//2 118//2
f 67//3 130//3 94//3
f 63//4 36//4 48//4
f 69//5 110//5 104//5
f 82//6 126//6 90//6
f 85//7 120//7 84//7
f 78//8 115//8 79//8
f 69//9 103//9 68//9
f 90//10 106//10 71//10
f 88//11 100//11 124//11
f 77//12 111//12 112//12
f 85//13 122//13 121//13
f 78//14 128//14 114//14
f 89//15 124//15 125//15
f 95//16 117//16 81//16
f 74//17 108//17 73//17
f 72//18 106//18 107//18
f 93//19 111//19 76//19
f 60//20 33//20 59//20
f 61//21 105//21 70//21
f 61//22 123//22 96//22
f 89//23 98//23 63//23
f 75//24 127//24 110//24
f 77//25 122//25 86//25
f 67//26 103//26 102//26
f 62//27 127//27 91//27
f 66//28 130//28 101//28
f 66//29 100//29 65//29
f 74//30 120//30 109//30
f 60//31 105//31 6//31
f 79//32 129//32 93//32
f 48//33 123//33 87//33
f 95//34 119//34 131//34
f 72//35 119//35 83//35
f 92//36 108//36 128//36
f 62//37 33//37 97//37
f 33//38 36//38 97//38
f 96//39 6//39 105//39
f 99//40 104//40 110//40
f 99//41 110//41 127//41
f 107//42 113//42 119//42
f 115//43 114//43 121//43
f 112//44 116//44 122//44
f 118//45 117//45 131//45
f 122//46 116//46 121//46
f 116//47 115//47 121//47
f 121//48 114//48 120//48
f 114//49 109//49 120//49
f 119//50 113//50 131//50
f 113//51 118//51 131//51
f 111//52 116//52 112//52
f 111//53 129//53 116//53
f 129//54 115//54 116//54
f 128//55 109//55 114//55
f 106//56 113//56 107//56
f 106//57 126//57 113//57
f 126//58 118//58 113//58
f 102//59 101//59 130//59
f 128//60 108//60 109//60
f 97//61 99//61 127//61
f 98//62 104//62 99//62
f 98//63 125//63 104//63
f 125//64 103//64 104//64
f 125//65 102//65 103//65
f 125//66 124//66 102//66
f 124//67 101//67 102//67
f 124//68 100//68 101//68
f 97//69 98//69 99//69
f 97//70 36//70 98//70
f 123//71 6//71 96//71
f 123//72 36//72 6//72
f 36//73 33//73 6//73
f 39//1 42//1 54//1
f 18//1 19//1 65//1
f 42//1 41//1 53//1
f 41//1 40//1 52//1
f 40//1 38//1 51//1
f 3//1 13//1 87//1
f 16//1 2//1 59//1
f 35//1 27//1 92//1
f 42//1 10//1 77//1
f 27//1 28//1 73//1
f 20//1 18//1 88//1
f 28//1 8//1 74//1
f 38//1 39//1 47//1
f 20//1 17//1 50//1
f 30//1 21//1 67//1
f 8//1 40//1 84//1
f 17//1 14//1 49//1
f 23//1 11//1 82//1
f 7//1 26//1 71//1
f 18//1 20//1 46//1
f 13//1 18//1 45//1
f 40//1 41//1 85//1
f 5//1 22//1 69//1
f 17//1 20//1 89//1
f 25//1 3//1 61//1
f 32//1 29//1 93//1
f 38//1 7//1 72//1
f 13//1 14//1 48//1
f 11//1 37//1 81//1
f 22//1 31//1 75//1
f 24//1 16//1 62//1
f 41//1 42//1 86//1
f 31//1 24//1 91//1
f 14//1 17//1 63//1
f 9//1 35//1 78//1
f 21//1 5//1 68//1
f 26//1 23//1 90//1
f 37//1 39//1 95//1
f 4//1 30//1 94//1
f 15//1 25//1 70//1
f 19//1 4//1 66//1
f 29//1 9//1 79//1
f 14//1 13//1 43//1
f 10//1 32//1 76//1
f 2//1 15//1 60//1
f 39//1 38//1 83//1
f 46//1 50//1 134//1
f 43//1 45//1 64//1
f 49//1 43//1 80//1
f 45//1 46//1 132//1
f 50//1 49//1 133//1
f 82//74 81//74 117//74
f 67//75 102//75 130//75
f 63//4 98//4 36//4
f 69//76 75//76 110//76
f 82//77 118//77 126//77
f 85//78 121//78 120//78
f 78//79 114//79 115//79
f 69//80 104//80 103//80
f 90//10 126//10 106//10
f 88//81 65//81 100//81
f 77//82 76//82 111//82
f 85//83 86//83 122//83
f 78//84 92//84 128//84
f 89//85 88//85 124//85
f 95//86 131//86 117//86
f 74//87 109//87 108//87
f 72//88 71//88 106//88
f 93//19 129//19 111//19
f 60//89 6//89 33//89
f 61//90 96//90 105//90
f 61//91 87//91 123//91
f 89//23 125//23 98//23
f 75//24 91//24 127//24
f 77//92 112//92 122//92
f 67//93 68//93 103//93
f 62//94 97//94 127//94
f 66//95 94//95 130//95
f 66//96 101//96 100//96
f 74//97 84//97 120//97
f 60//98 70//98 105//98
f 79//99 115//99 129//99
f 48//100 36//100 123//100
f 95//101 83//101 119//101
f 72//102 107//102 119//102
f 92//103 73//103 108//103
f 62//104 59//104 33//104
usemtl Pole
f 53//105 58//105 54//105
f 51//106 56//106 52//106
f 54//107 12//107 47//107
f 52//108 57//108 53//108
f 51//109 12//109 55//109
f 12//110 58//110 1//110
f 58//111 57//111 1//111
f 57//112 56//112 1//112
f 56//113 55//113 1//113
f 55//114 12//114 1//114
f 132//115 136//115 64//115
f 134//116 138//116 139//116
f 132//117 139//117 137//117
f 80//118 136//118 44//118
f 80//119 138//119 133//119
f 135//120 138//120 44//120
f 135//121 44//121 136//121
f 135//122 136//122 137//122
f 135//123 137//123 139//123
f 138//124 135//124 139//124
f 53//105 57//105 58//105
f 51//106 55//106 56//106
f 54//107 58//107 12//107
f 52//108 56//108 57//108
f 51//109 47//109 12//109
f 132//115 137//115 136//115
f 134//116 133//116 138//116
f 132//117 134//117 139//117
f 80//118 64//118 136//118
f 80//119 44//119 138//119
usemtl Water
f 2//125 16//125 23//125
f 4//126 19//126 27//126
f 5//127 21//127 29//127
f 2//128 23//128 26//128
f 3//129 25//129 28//129
f 4//130 27//130 30//130
f 5//131 29//131 32//131
f 8//132 34//132 40//132
f 39//133 37//133 42//133
f 37//134 10//134 42//134
f 40//135 34//135 38//135
f 34//136 7//136 38//136
f 24//137 37//137 11//137
f 24//138 31//138 37//138
f 31//139 10//139 37//139
f 30//140 35//140 9//140
f 30//141 27//141 35//141
f 28//142 34//142 8//142
f 28//143 25//143 34//143
f 25//144 7//144 34//144
f 31//145 32//145 10//145
f 31//146 22//146 32//146
f 22//147 5//147 32//147
f 29//148 30//148 9//148
f 29//149 21//149 30//149
f 27//150 19//150 28//150
f 19//151 3//151 28//151
f 25//152 26//152 7//152
f 25//153 15//153 26//153
f 15//154 2//154 26//154
f 23//155 24//155 11//155
f 23//156 16//156 24//156
f 18//157 13//157 19//157
f 13//158 3//158 19//158
